<svg xmlns="http://www.w3.org/2000/svg" width="160" height="150" viewBox="0 0 160 150">
    <defs>
        <style>
            .cls-2{fill:#fff}.cls-3{fill:#9e616a}.cls-4{fill:#2f2e41}.cls-5{fill:#707079}.cls-7{opacity:.1;isolation:isolate}.cls-10{fill:#3f3d56}.cls-11{fill:#745be7}
        </style>
    </defs>
    <g id="Group_11427" data-name="Group 11427" transform="translate(1135.697 -2909.423)">
        <g id="Group_11426" data-name="Group 11426" transform="translate(-1135.697 2909.423)">
            <g id="Group_11425" data-name="Group 11425">
                <path id="Path_18479" data-name="Path 18479" d="M269.449 335.047 253.436 328v-6.061l5.707-.032a4.238 4.238 0 0 0 4-2.893l4.009-12a4.235 4.235 0 0 0-4.021-5.568h-9.692V295.8H265.6a4.237 4.237 0 0 0 4.131-3.282l2.761-11.986a4.236 4.236 0 0 0-4.131-5.178h-14.925v-1.41a2.826 2.826 0 0 0-5.651 0v1.41H147.706v-1.41a2.826 2.826 0 0 0-5.652 0v1.41h-11.865a4.23 4.23 0 0 0-4.131 5.178l2.761 11.986a4.237 4.237 0 0 0 4.131 3.282h9.105v5.64h-6.631a4.229 4.229 0 0 0-4.034 5.528l4.092 12.673a4.238 4.238 0 0 0 4.058 2.933l2.515-.014V328l-12.951 7.05a4.234 4.234 0 0 0-4.239 4.23 4.234 4.234 0 0 0 4.239 4.23h12.951v31.022a2.826 2.826 0 0 0 5.652 0v-31.025h100.078v31.022a2.826 2.826 0 0 0 5.651 0v-31.022h16.013a4.234 4.234 0 0 0 4.239-4.23 4.234 4.234 0 0 0-4.239-4.23zM147.706 295.8h100.079v5.64H147.706zm0 32.2v-5.469l100.079-.561V328z" transform="translate(-124.865 -227.605)" style="fill:#c3c3c3"/>
                <path id="Path_18484" data-name="Path 18484" class="cls-2" d="M130.352 591.457a5.911 5.911 0 0 1 .135-7.653c.188-.212.527.07.338.283a5.473 5.473 0 0 0-.111 7.119c.181.219-.183.468-.362.251z" transform="translate(-128.038 -466.581)"/>
                <path id="Path_18485" data-name="Path 18485" class="cls-2" d="M179.047 586.244a3.346 3.346 0 0 0 2.629 1.781c.283.028.2.461-.079.434a3.749 3.749 0 0 1-2.912-1.963.228.228 0 0 1 .056-.307.222.222 0 0 1 .306.055z" transform="translate(-166.009 -468.407)"/>
                <path id="Path_18486" data-name="Path 18486" class="cls-3" d="m333.747 647.523-4.2 1.216-6.696-15.639 6.205-1.8z" transform="translate(-276.23 -503.141)"/>
                <path id="Path_18487" data-name="Path 18487" class="cls-4" d="m323.522 459.17-4.337 4.627s-22.844 10.121-22.844 15.325 5.494 27.759 7.807 29.494c1.393 1.051.764 2.182 1.455 3.785l8.088-2.918s-.578-1.735 0-2.6a1.118 1.118 0 0 0 0-1.446s-.867.289-.578-.578.289-1.157 0-1.446a19.949 19.949 0 0 1-1.157-2.892s.289-10.41-3.759-14.169c0 0 18.8-5.494 21.109-9.253s2.892-17.35 2.892-17.35z" transform="translate(-255.946 -371.458)"/>
                <path id="Path_18488" data-name="Path 18488" class="cls-4" d="m330.411 689.891-14.011 2.891-.036-.177a5.568 5.568 0 0 1 4.327-6.578l2.158-2.47 5.175.956 1.223-.252z" transform="translate(-271.18 -543.111)"/>
                <path id="Path_18489" data-name="Path 18489" class="cls-3" d="m416.83 625.577-5.365 3.6 11.135 12.859 3.635-2.437z" transform="translate(-343.974 -498.757)"/>
                <path id="Path_18490" data-name="Path 18490" class="cls-4" d="M381.215 421.246c-2.866-6.042 5.869 11.825 4.713 17.358-.9 4.321-17.771 18.077-17.771 18.077 5.082 2.165 8.337 12.058 8.337 12.058a19.911 19.911 0 0 0 2.068 2.329c.37.174.468.446.49 1.36s.74.348.74.348a1.118 1.118 0 0 1 .49 1.361c-.25 1.012.882 2.448.882 2.448l-6.252 5.829c-1.193-1.274-1.353-2.9-3.02-3.412-2.764-.849-15.574-20.208-17.337-25.106s16.3-22.158 16.3-22.158l1.534-8.543z" transform="translate(-300.357 -341.505)"/>
                <path id="Path_18491" data-name="Path 18491" class="cls-4" d="m437.007 685.986-13.459 4.846-.061-.17a5.568 5.568 0 0 1 3.352-7.124l1.787-2.75 5.259.214 1.175-.423z" transform="translate(-352.912 -540.831)"/>
                <path id="Path_18492" data-name="Path 18492" class="cls-5" d="m378.381 302.44-3.9 2.967-10.35 2.741s3.709 26.026 1.958 27.776-.172 1.8-.523 4.071-1.206 6.935-1.206 6.935c11.814 6.254 22 6.421 30.18-.9a2.038 2.038 0 0 0-1.112-2.3c-1.523-.808 1.4-4.579.159-5.21s.506-6.1.506-6.1l3.793-17.907-10.086-7.89-1.534-3.7z" transform="translate(-307.773 -251.106)"/>
                <circle id="Ellipse_512" data-name="Ellipse 512" cx="1.348" cy="1.348" r="1.348" transform="translate(74.129 71.914)" style="fill:#f2f2f2"/>
                <circle id="Ellipse_513" data-name="Ellipse 513" class="cls-3" cx="7.706" cy="7.706" transform="translate(66.895 34.505)" r="7.706"/>
                <path id="Path_18493" data-name="Path 18493" class="cls-7" d="m489.473 379.686 1.274.955.637-4.458z" transform="translate(-403.625 -307.484)"/>
                <path id="Path_18494" data-name="Path 18494" class="cls-5" d="M339.722 326.584s-1.592-.318-2.548 2.548-5.751 17.958-5.751 19.869 23.107 6.076 23.107 6.076l-2.27-7.963-10.5-3.284z" transform="translate(-282.775 -269.531)"/>
                <circle id="Ellipse_514" data-name="Ellipse 514" class="cls-3" cx="3.719" cy="3.719" transform="translate(69.077 76.861)" r="3.719"/>
                <path id="Path_18495" data-name="Path 18495" class="cls-7" d="m378.335 383.874.291 3.944 9.239 4.849-8.218-5.512z" transform="translate(-318.649 -313.393)"/>
                <path id="Path_18496" data-name="Path 18496" d="M435.439 360.393h-.12v-3.284a1.9 1.9 0 0 0-1.9-1.9h-6.956a1.9 1.9 0 0 0-1.9 1.9v18.014a1.9 1.9 0 0 0 1.9 1.9h6.956a1.9 1.9 0 0 0 1.9-1.9V362.73h.12z" transform="translate(-353.99 -291.463)" style="fill:#f0f0f0"/>
                <path id="Path_18497" data-name="Path 18497" class="cls-5" d="M474.6 353.826s.955.637 1.592 3.5 4.777 13.693 3.184 16.24-2.062 5.266-7.476 1.445l-7.491-6.859 5.414-5.1 2.229 1.592z" transform="translate(-384.447 -290.407)"/>
                <circle id="Ellipse_515" data-name="Ellipse 515" cx="1.592" cy="1.592" r="1.592" transform="translate(74.444 68.618)" style="fill:#6c63ff"/>
                <circle id="Ellipse_516" data-name="Ellipse 516" class="cls-3" cx="3.719" cy="3.719" transform="translate(76.935 69.958)" r="3.719"/>
                <path id="Path_18498" data-name="Path 18498" class="cls-7" d="m372.872 436.86 11.475 2.148-11.173.429z" transform="translate(-314.471 -353.985)"/>
                <path id="ac86dcea-12c8-45fb-8feb-523bbd8ea0ee" class="cls-4" d="M419.211 221.74s2.007-3.836-2.408-4.184c0 0-3.763-3.414-7.6-.624a3.852 3.852 0 0 0-3.236 2.368 1.435 1.435 0 0 0-2.007 1.046 10.909 10.909 0 0 0 0 6.626c1.2 3.138 1.6 3.487 1.6 3.487s-.845-3.894 3.971-4.243 9.234-3.366 9.636.47.843 2.1.843 2.1 3.816-5.477-.799-7.046z" transform="translate(-337.824 -184.596)"/>
                <path id="Path_18499" data-name="Path 18499" class="cls-10" d="M574.269 205.746h-62.387a3.606 3.606 0 0 0-3.606 3.606v15a3.606 3.606 0 0 0 3.606 3.606h.916v2.711a.832.832 0 0 0 1.42.588l3.3-3.3h56.753a3.606 3.606 0 0 0 3.606-3.606v-15a3.606 3.606 0 0 0-3.608-3.605z" transform="translate(-417.875 -176.88)"/>
                <path id="Path_18500" data-name="Path 18500" class="cls-2" d="M580.226 232.09h-62.387a1.778 1.778 0 0 1-1.776-1.776v-15a1.778 1.778 0 0 1 1.776-1.776h47.383A16.8 16.8 0 0 1 582 230.314a1.778 1.778 0 0 1-1.774 1.776z" transform="translate(-423.832 -182.838)"/>
                <rect id="Rectangle_5368" data-name="Rectangle 5368" class="cls-11" width="28.705" height="2.359" rx="1.18" transform="translate(110.913 33.98)"/>
                <rect id="Rectangle_5369" data-name="Rectangle 5369" class="cls-11" width="39.912" height="2.359" rx="1.18" transform="translate(105.31 38.669)"/>
                <rect id="Rectangle_5370" data-name="Rectangle 5370" class="cls-11" width="39.912" height="2.359" rx="1.18" transform="translate(105.31 43.358)"/>
                <path id="Path_18503" data-name="Path 18503" class="cls-10" d="M483.433 82h48.628a2.811 2.811 0 0 1 2.811 2.811v11.7a2.811 2.811 0 0 1-2.811 2.811h-.714v2.113a.648.648 0 0 1-1.107.458l-2.571-2.571h-44.236a2.811 2.811 0 0 1-2.811-2.811v-11.7A2.811 2.811 0 0 1 483.433 82z" transform="translate(-396.72 -82)"/>
                <path id="Path_18504" data-name="Path 18504" class="cls-2" d="M486.692 101.15a13.094 13.094 0 0 1 13.079-13.08H536.7a1.386 1.386 0 0 1 1.384 1.384v11.7a1.386 1.386 0 0 1-1.384 1.384h-48.623a1.386 1.386 0 0 1-1.385-1.388z" transform="translate(-401.364 -86.643)"/>
                <rect id="Rectangle_5374" data-name="Rectangle 5374" class="cls-11" width="22.374" height="1.839" rx=".919" transform="translate(99.708 3.984)"/>
                <rect id="Rectangle_5375" data-name="Rectangle 5375" class="cls-11" width="31.11" height="1.839" rx=".919" transform="translate(95.344 7.662)"/>
                <rect id="Rectangle_5376" data-name="Rectangle 5376" class="cls-11" width="31.11" height="1.839" rx=".919" transform="translate(95.344 11.34)"/>
            </g>
        </g>
    </g>
</svg>
