<svg xmlns="http://www.w3.org/2000/svg" width="56" height="56">
    <defs>
        <style>
            .cls-2{fill:#0ec6a8}.cls-3{fill:#03846f}
        </style>
    </defs>
    <g id="Group_15942" data-name="Group 15942" transform="translate(-1032 -213)">
        <circle id="Ellipse_547" data-name="Ellipse 547" cx="28" cy="28" r="28" transform="translate(1032 213)" style="fill:#fff"/>
        <g id="Group_15956" data-name="Group 15956" transform="translate(16 9)">
            <g id="Group_15941" data-name="Group 15941" transform="translate(1024 219)">
                <g id="Group_15844" data-name="Group 15844" transform="translate(4.066 .173)">
                    <path id="Path_19657" data-name="Path 19657" class="cls-2" d="M0 0h16.106v25.794H0z" transform="translate(14.195)"/>
                    <path id="Path_17831" data-name="Path 17831" class="cls-2" d="M76.962 1121.1c3.52 0 7.04-.008 10.561 0a.615.615 0 0 0 .661-.347c1.189-2.351 2.393-4.7 3.593-7.044a.16.16 0 0 1 .158.068c-.132.1-.076.231-.077.348v25.278c-.386 0-.773.011-1.159.011q-6.66 0-13.32.007c-.328 0-.418-.061-.417-.344.007-4.87.002-13.097 0-17.977z" transform="translate(-76.96 -1113.633)"/>
                </g>
                <path id="Path_19759" data-name="Path 19759" class="cls-3" d="m33.131 1121.859-3.951-.006v-.084c.441-.853.768-1.759 1.145-2.64.944-2.2 1.875-4.414 2.811-6.621h14.889c.123 0 .246-.012.369-.018l-.007.028v.075q-1.854 4.416-3.7 8.834a.618.618 0 0 1-.68.435c-3.624-.013-7.25-.005-10.876-.003z" transform="translate(-29.18 -1112.489)"/>
                <path id="Path_19760" data-name="Path 19760" class="cls-3" d="M277.044 1122.07c-3.636 0-7.272-.011-10.907 0a.649.649 0 0 1-.7-.476q-1.727-4.147-3.477-8.283c-.059-.141-.114-.284-.171-.427a.155.155 0 0 0-.163-.085v-.075q3.956 0 7.911-.009 3.75 0 7.5.007 1.9 4.512 3.812 9.021c.118.277.055.324-.217.322-1.199-.006-2.394.003-3.588.005z" transform="translate(-242.735 -1112.7)"/>
            </g>
            <circle id="Ellipse_550" data-name="Ellipse 550" cx="5.917" cy="5.917" transform="translate(1052.165 230)" style="stroke:#0ec6a8;fill:#fff" r="5.917"/>
            <path id="Path_19769" data-name="Path 19769" class="cls-3" d="M103.7 310.74a.725.725 0 0 1-.517-.2l-1.586-1.634a.43.43 0 0 1 .127-.7.779.779 0 0 1 .906.1l1.037 1.069 2.665-3.088a.77.77 0 0 1 .9-.141.436.436 0 0 1 .182.692l-3.172 3.675a.709.709 0 0 1-.52.222z" transform="translate(953.697 -73.064)"/>
        </g>
    </g>
</svg>
