<svg xmlns="http://www.w3.org/2000/svg" width="142" height="142">
    <defs>
        <style>
            .cls-2{fill:#fff}.cls-3{fill:#ffb6b6}.cls-4{fill:#3f3d56}.cls-5{fill:#2f2e41}.cls-7{fill:#ccc}.cls-8{fill:#745be7}.cls-9{fill:#e6e6e6}
        </style>
    </defs>
    <g id="Group_16026" data-name="Group 16026" transform="translate(-462 -694)">
        <path id="Rectangle_5541" data-name="Rectangle 5541" transform="translate(462 694)" style="fill:none" d="M0 0h142v142H0z"/>
        <g id="Group_15901" data-name="Group 15901" transform="translate(12.975 -48.163)">
            <g id="Group_11437" data-name="Group 11437" transform="translate(464.025 754.162)">
                <path id="Path_18506" data-name="Path 18506" class="cls-2" d="M178.909 262.747a7.387 7.387 0 0 0 1.852-5.055c0-.184.282-.181.286 0a7.684 7.684 0 0 1-1.937 5.256c-.122.138-.322-.067-.2-.2z" transform="translate(-155.39 -195.735)"/>
                <path id="Path_18507" data-name="Path 18507" class="cls-2" d="M213.216 277.607a7.387 7.387 0 0 0 4.522-2.921c.107-.15.334.025.226.174a7.683 7.683 0 0 1-4.711 3.03c-.181.036-.216-.248-.037-.283z" transform="translate(-181.416 -208.703)"/>
                <path id="Path_18508" data-name="Path 18508" class="cls-3" d="M309.014 62.076a2.91 2.91 0 0 1 .066.451l11.814 6.815 2.872-1.653 3.061 4.008-4.8 3.421a2.2 2.2 0 0 1-2.64-.064l-12.182-9.611a2.887 2.887 0 1 1 1.808-3.367z" transform="translate(-250.075 -45.408)"/>
                <path id="Path_18509" data-name="Path 18509" class="cls-4" d="M376.761 81.961a1.236 1.236 0 0 1 .617-.825l5.454-2.972a3.437 3.437 0 0 1 4.155 5.476l-4.371 4.441a1.238 1.238 0 0 1-1.75.014 1.213 1.213 0 0 1-.12-.137l-3.764-4.99a1.236 1.236 0 0 1-.221-1.007z" transform="translate(-305.85 -58.88)"/>
                <path id="Path_18510" data-name="Path 18510" class="cls-5" d="M416.2 5.906a8.525 8.525 0 0 1 5.037-5.64c2.468-.845 6.082.443 7.938 2.292 3.394 3.383 4.222 15 1.89 18.675-.464-.025-2.064-.043-2.534-.06l-.664-2.213v2.19c-3.664-.113-7.479-.042-11.3.031-.341-2.6-1.156-12.774-.367-15.275z" transform="translate(-335.743)"/>
                <path id="Path_18511" data-name="Path 18511" class="cls-3" d="M397.375 419.037h-3.342l-1.59-12.891h4.932z" transform="translate(-317.764 -308.733)"/>
                <path id="Path_18512" data-name="Path 18512" class="cls-3" d="m508.9 411.735-3.234.843-4.79-12.073 4.773-1.244z" transform="translate(-400.246 -303.509)"/>
                <path id="Path_18513" data-name="Path 18513" class="cls-3" d="m413.106 126.67.757 1.969-.151 1.969-14.82 5.133.735-8.617 1.666-1.969z" transform="translate(-322.717 -95.122)"/>
                <circle id="Ellipse_517" data-name="Ellipse 517" cx="5.293" cy="5.293" r="5.293" transform="translate(80.405 3.407)" style="fill:#ffb7b7"/>
                <path id="Path_18514" data-name="Path 18514" class="cls-5" d="M413.3 4.435a6.649 6.649 0 0 1 10.108 5.8 17.86 17.86 0 0 1-9.219.178l-.745-1.823-.444 1.826a2.24 2.24 0 0 1-2.886 0 6.788 6.788 0 0 1 3.186-5.981z" transform="translate(-331.238 -2.627)"/>
                <path id="Path_18515" data-name="Path 18515" class="cls-5" d="M382.657 459.743h-2.371l-.423-2.239-1.084 2.239h-6.29a1.414 1.414 0 0 1-.8-2.577l5.023-3.469v-2.264l5.283.315z" transform="translate(-301.548 -343.093)"/>
                <path id="Path_18516" data-name="Path 18516" class="cls-5" d="m511.472 450.733-2.295.6-.974-2.06-.484 2.44-6.086 1.586a1.414 1.414 0 0 1-1.428-2.291l3.985-4.624-.571-2.19 5.192-1.027z" transform="translate(-399.472 -336.82)"/>
                <path id="Path_18517" data-name="Path 18517" class="cls-5" d="m421.783 228.83-9.8-20.134-3.075-24.506c2.12-3.938-1.818-11.95-1.818-11.95v-3.364l-15.254 2.877a73.221 73.221 0 0 0-4.462 26.586l.615 32.575h-.189a1.206 1.206 0 0 0 0 2.413h6.032a1.206 1.206 0 1 0 0-2.413h-.156l4.33-41.441 5.035 20.45 12.168 18.829a1.2 1.2 0 0 0 .1 2.4h6.032a1.205 1.205 0 0 0 .445-2.326z" transform="translate(-313.533 -128.711)"/>
                <path id="Path_18518" data-name="Path 18518" class="cls-4" d="M413.176 98.487a.962.962 0 0 0-.87-.723c-.2-2.3-1.53-17.041-1.58-17.474v-.018l-.385-8.217A1.215 1.215 0 0 0 409.2 70.9l-2.032-.133a.107.107 0 0 1-.1-.107 1.709 1.709 0 0 0-1.709-1.708h-6.015a1.6 1.6 0 0 0-1.586 1.4.107.107 0 0 1-.108.1 2.858 2.858 0 0 0-2.875 2.37c-.822 4.785-2.47 15.644-1.656 21.682a42.307 42.307 0 0 1 .048 7.021 1.294 1.294 0 0 0 .322.939.963.963 0 0 0-.668 1.16.965.965 0 0 0 1.172.7l18.483-4.659a.965.965 0 0 0 .7-1.178z" transform="translate(-318.11 -52.314)"/>
                <path id="Path_18519" data-name="Path 18519" class="cls-2" d="M169.657 310.49a2.284 2.284 0 0 0-1.917-2.24l-32.769-5.381a2.282 2.282 0 0 0-.944.042l-7.68 1.986-4.406 1.141-8.132 2.1a2.29 2.29 0 0 0-1.715 2.216v34.337a2.3 2.3 0 0 0 1.812 2.237l33.378-.378a2.229 2.229 0 0 0 .477.049 2.282 2.282 0 0 0 .689-.1l19.83.494a2.28 2.28 0 0 0 1.6-2.2z" transform="translate(-104.579 -230.351)"/>
                <path id="Path_18520" data-name="Path 18520" class="cls-7" d="M169.657 310.49a2.284 2.284 0 0 0-1.917-2.24l-32.769-5.381a2.282 2.282 0 0 0-.944.042l-7.68 1.986-4.406 1.141-8.132 2.1a2.29 2.29 0 0 0-1.715 2.216v34.337a2.3 2.3 0 0 0 1.812 2.237l33.378-.378a2.229 2.229 0 0 0 .477.049 2.282 2.282 0 0 0 .689-.1l19.83.494a2.28 2.28 0 0 0 1.6-2.2zm-1.549 35.956-19.83.472a1.736 1.736 0 0 1-.874.042l-33.38-.587a1.726 1.726 0 0 1-1.358-1.679v-34.338a1.719 1.719 0 0 1 1.126-1.612 1.434 1.434 0 0 1 .16-.05l8.6-2.224 5.087-1.316 6.528-1.688a1.653 1.653 0 0 1 .429-.055 1.712 1.712 0 0 1 .278.023l32.769 5.381a1.709 1.709 0 0 1 1.438 1.679l.223 34.3a1.711 1.711 0 0 1-1.196 1.652z" transform="translate(-104.579 -230.351)"/>
                <path id="Path_18521" data-name="Path 18521" class="cls-7" d="M171 327.879a.244.244 0 0 1-.072.032l-9.639 2.606-3 .811-8.534 2.306a.323.323 0 0 1-.075.009h-.051l-34.412-6.274-.114-.021a.287.287 0 0 1 .1-.565l.692.126 33.77 6.157 7.355-1.988 4.115-1.112 9.49-2.566.151-.04a.287.287 0 0 1 .334.156.218.218 0 0 1 .017.046.287.287 0 0 1-.127.317z" transform="translate(-106.681 -248.346)"/>
                <path id="Path_18522" data-name="Path 18522" class="cls-7" d="M258.529 384.628c-.157 0-.284-.126-.286.682l-.286-31.188c0-1.123.125-1.252.283-1.254.157 0 .285.126.286 1.249l.286 31.188c0-.807-.125-.678-.284-.676z" transform="translate(-215.51 -268.31)"/>
                <path id="Path_18523" data-name="Path 18523" class="cls-7" d="m190.227 353.5-3.082.033-1.265-34.15-32.269-6.421a.738.738 0 0 1-.094-.023 1.136 1.136 0 0 1-.614-.433l4.406-1.141 1.3.257 30.619 6.091a1.138 1.138 0 0 1 .771.557c.092.171.226 35.036.228 35.23z" transform="translate(-135.7 -236.824)"/>
                <path id="Path_18524" data-name="Path 18524" class="cls-2" d="M273.476 57.357a1.721 1.721 0 0 0-1.445-1.688l-24.7-4.055a1.722 1.722 0 0 0-.712.032l-5.788 1.5-3.321.86-6.128 1.584a1.726 1.726 0 0 0-1.292 1.67V77.5a1.734 1.734 0 0 0 1.366 1.686l25.155 5.352a1.666 1.666 0 0 0 .359.037 1.72 1.72 0 0 0 .519-.079l14.945-4.72a1.718 1.718 0 0 0 1.206-1.659z" transform="translate(-194.465 -39.143)"/>
                <path id="Path_18525" data-name="Path 18525" class="cls-8" d="M251.8 57.847a.209.209 0 0 0-.053.007l-15.237 3.941a.215.215 0 0 0-.161.208v20.241a.217.217 0 0 0 .17.211l25.155 5.352a.217.217 0 0 0 .11-.005l14.946-4.719a.215.215 0 0 0 .15-.207l-.167-20.759a.215.215 0 0 0-.181-.211l-24.7-4.055z" transform="translate(-199.211 -43.89)"/>
                <path id="Path_18526" data-name="Path 18526" class="cls-4" d="M273.476 57.357a1.721 1.721 0 0 0-1.445-1.688l-24.7-4.055a1.722 1.722 0 0 0-.712.032l-5.788 1.5-3.321.86-6.128 1.584a1.726 1.726 0 0 0-1.292 1.67V77.5a1.734 1.734 0 0 0 1.366 1.686l25.155 5.352a1.666 1.666 0 0 0 .359.037 1.72 1.72 0 0 0 .519-.079l14.945-4.72a1.718 1.718 0 0 0 1.206-1.659zm-1.167 22.007-14.945 4.72a1.313 1.313 0 0 1-.658.032l-25.157-5.352a1.3 1.3 0 0 1-1.023-1.265V57.256a1.3 1.3 0 0 1 .848-1.215 1.06 1.06 0 0 1 .121-.037l6.484-1.676 3.834-.992 4.92-1.272a1.24 1.24 0 0 1 .323-.042 1.272 1.272 0 0 1 .21.017l24.7 4.055a1.287 1.287 0 0 1 1.084 1.265l.168 20.759a1.29 1.29 0 0 1-.9 1.245z" transform="translate(-194.465 -39.143)"/>
                <path id="Path_18527" data-name="Path 18527" class="cls-4" d="M274.482 70.461a.192.192 0 0 1-.055.025l-7.264 1.964-2.261.611-6.432 1.739a.243.243 0 0 1-.056.007h-.039l-25.935-4.728-.086-.016a.216.216 0 0 1 .078-.426l.522.1 25.451 4.641 5.543-1.5 3.1-.838 7.152-1.94.114-.03a.216.216 0 0 1 .251.118.153.153 0 0 1 .013.035.216.216 0 0 1-.096.238z" transform="translate(-196.045 -52.83)"/>
                <path id="Path_18528" data-name="Path 18528" class="cls-4" d="M340.455 113.231a.216.216 0 0 1-.216-.214l-.215-23.5a.215.215 0 0 1 .214-.218.215.215 0 0 1 .216.214l.216 23.5a.216.216 0 0 1-.214.218z" transform="translate(-277.897 -67.884)"/>
                <path id="Path_18529" data-name="Path 18529" class="cls-4" d="m288.918 86.643-2.261.611-.957-23.192-24.32-4.839a.535.535 0 0 1-.07-.017.857.857 0 0 1-.463-.326l3.321-.86.976.194 23.077 4.59a.858.858 0 0 1 .581.42c.074.125.114 23.269.116 23.419z" transform="translate(-217.795 -44.021)"/>
                <path id="Path_18530" data-name="Path 18530" class="cls-3" d="M358.047 108.326a2.9 2.9 0 0 1 .322.323l13.547-1.582 1.318-3.04 4.848 1.389-1.809 5.609a2.2 2.2 0 0 1-2.156 1.524l-15.511-.441a2.887 2.887 0 1 1-.846-3.994 2.921 2.921 0 0 1 .288.214z" transform="translate(-288.098 -79.062)"/>
                <path id="Path_18531" data-name="Path 18531" class="cls-4" d="M428.8 84.97a1.236 1.236 0 0 1 0-1.031l2.6-5.64a3.437 3.437 0 0 1 6.6 1.914l-.857 6.172a1.237 1.237 0 0 1-1.574 1.017l-6-1.758a1.236 1.236 0 0 1-.769-.674z" transform="translate(-345.341 -57.633)"/>
                <circle id="Ellipse_518" data-name="Ellipse 518" class="cls-8" cx="8.64" cy="8.64" r="8.64" transform="rotate(-5.655 710.61 35.097)"/>
                <path id="Path_18532" data-name="Path 18532" class="cls-2" d="M104.788 315.061a.961.961 0 0 1-.769-.385l-2.357-3.143a.961.961 0 1 1 1.535-1.157l1.542 2.056 3.961-5.941a.961.961 0 1 1 1.6 1.062l-4.715 7.072a.962.962 0 0 1-.773.428z" transform="translate(-96.517 -232.613)"/>
                <path id="Path_18533" data-name="Path 18533" class="cls-2" d="M247.935 126.913a.354.354 0 0 1-.08-.009l-7.48-1.689a.362.362 0 1 1 .159-.706l7.48 1.689a.362.362 0 0 1-.079.715z" transform="translate(-201.947 -94.612)"/>
                <path id="Path_18534" data-name="Path 18534" class="cls-9" d="M127.811 413.577a.351.351 0 0 1-.08.007l-7.667-.129a.362.362 0 0 1 .012-.724l7.667.129a.362.362 0 0 1 .068.716z" transform="translate(-110.356 -313.73)"/>
                <path id="Path_18535" data-name="Path 18535" class="cls-9" d="M138.811 430.577a.355.355 0 0 1-.08.007l-7.667-.129a.362.362 0 0 1 .012-.724l7.667.129a.362.362 0 0 1 .068.716z" transform="translate(-118.702 -326.628)"/>
            </g>
        </g>
    </g>
</svg>
