<svg xmlns="http://www.w3.org/2000/svg" width="142" height="142">
    <defs>
        <style>
            .cls-2{fill:#ccc}.cls-3{fill:#e6e6e6}.cls-4{fill:#fff}.cls-5{fill:#3f3d56}
        </style>
    </defs>
    <g id="Group_16025" data-name="Group 16025" transform="translate(-186 -694)">
        <path id="Rectangle_5540" data-name="Rectangle 5540" transform="translate(186 694)" style="fill:none" d="M0 0h142v142H0z"/>
        <g id="Group_15900" data-name="Group 15900" transform="translate(9 -51.311)">
            <g id="Group_11435" data-name="Group 11435" transform="translate(201 757.311)">
                <g id="a8ec7779-81bc-4fb5-bea3-5b8fa1590d68">
                    <path id="a61284fa-5c43-4b2c-a220-e074c1426ed7" class="cls-2" d="M232.028 1.587A2.6 2.6 0 0 0 229.656 0H182.3a2.568 2.568 0 0 0-2.567 2.567v59.9a2.568 2.568 0 0 0 2.567 2.567h47.353a2.57 2.57 0 0 0 2.567-2.567V2.568a2.518 2.518 0 0 0-.192-.981zm-.375 60.884a2 2 0 0 1-2 2H182.3a2 2 0 0 1-2-2V2.568a2 2 0 0 1 2-2h47.353a2.007 2.007 0 0 1 1.857 1.262 2.189 2.189 0 0 1 .075.225 1.969 1.969 0 0 1 .069.515z" transform="translate(-179.736)"/>
                    <path id="f058fc04-be1a-4760-b4ca-1d7d0096a0b4" class="cls-2" d="M257.393 29.627H243.13a1.141 1.141 0 0 1 0-2.282h14.263a1.141 1.141 0 0 1 0 2.282z" transform="translate(-214.984 -15.483)"/>
                    <path id="b7b03d80-c54f-4ac7-a733-77e3791388e5" class="cls-2" d="M257.393 43.437H243.13a1.141 1.141 0 0 1 0-2.282h14.263a1.141 1.141 0 0 1 0 2.282z" transform="translate(-214.984 -23.302)"/>
                    <path id="bbd645bb-3528-4838-b3c9-db478370a388" class="cls-2" d="M212.47 34.873h-10.425a1.285 1.285 0 0 1-1.284-1.284V21.29a1.285 1.285 0 0 1 1.284-1.284h10.425a1.285 1.285 0 0 1 1.284 1.284v12.3a1.285 1.285 0 0 1-1.284 1.283z" transform="translate(-191.64 -11.328)"/>
                    <path id="a70c21c1-6213-4b7f-bc14-591f551ac782" class="cls-2" d="M233.711 71.713h-32.234a1.141 1.141 0 0 1 0-2.282h32.234a1.141 1.141 0 1 1 0 2.282z" transform="translate(-191.402 -39.312)"/>
                    <path id="af88612c-f069-4016-a622-4620c9d6e9ee" class="cls-2" d="M233.708 85.527h-32.234a1.141 1.141 0 0 1 0-2.282h32.234a1.141 1.141 0 1 1 0 2.282z" transform="translate(-191.398 -47.134)"/>
                    <path id="b4028583-530b-4323-a807-42e8359c25be" class="cls-2" d="M233.708 99.332h-32.234a1.141 1.141 0 0 1 0-2.282h32.234a1.141 1.141 0 1 1 0 2.282z" transform="translate(-191.398 -54.95)"/>
                    <path id="eea2a91b-a87e-450d-ac84-b33fc6ad943a" class="cls-2" d="M233.708 113.145h-32.234a1.141 1.141 0 0 1 0-2.282h32.234a1.141 1.141 0 1 1 0 2.282z" transform="translate(-191.398 -62.771)"/>
                    <path id="f69f5fd9-c3c3-49bc-9ead-71d5a754157a" class="cls-2" d="M233.708 126.951h-32.234a1.141 1.141 0 0 1 0-2.282h32.234a1.141 1.141 0 1 1 0 2.282z" transform="translate(-191.398 -70.589)"/>
                </g>
                <path id="b052e332-5d61-4357-af09-a12de450e4ae" class="cls-3" d="M279.47 82.565a3.3 3.3 0 0 0-3.015-2.017h-60.178a3.264 3.264 0 0 0-3.262 3.262v76.131a3.264 3.264 0 0 0 3.262 3.262h60.18a3.267 3.267 0 0 0 3.262-3.262V83.81a3.2 3.2 0 0 0-.247-1.245z" transform="translate(-198.35 -46.203)"/>
                <path id="Path_18505" data-name="Path 18505" class="cls-4" d="M279.622 163.787h-56.238c-.81 0-1.445-.888-1.445-2.018V91.147c0-1.132.635-2.018 1.445-2.018h56.239c.811 0 1.445.888 1.445 2.018v70.621c-.001 1.132-.636 2.019-1.446 2.019z" transform="translate(-203.511 -51.061)"/>
                <path id="a0e2f6aa-04b8-4ab3-a7b0-0f19b8b6a28a" class="cls-5" d="M279.47 82.565a3.3 3.3 0 0 0-3.015-2.017h-60.178a3.264 3.264 0 0 0-3.262 3.262v76.131a3.264 3.264 0 0 0 3.262 3.262h60.18a3.267 3.267 0 0 0 3.262-3.262V83.81a3.2 3.2 0 0 0-.247-1.245zm-.477 77.375a2.541 2.541 0 0 1-2.538 2.538h-60.178a2.539 2.539 0 0 1-2.538-2.537v-76.13a2.541 2.541 0 0 1 2.538-2.538h60.18a2.55 2.55 0 0 1 2.355 1.6 2.729 2.729 0 0 1 .1.286 2.51 2.51 0 0 1 .087.655z" transform="translate(-198.35 -46.203)"/>
                <path id="f7f5684e-e384-4873-9fc1-6b481c0c3185" class="cls-5" d="M311.708 118.2h-18.127a1.45 1.45 0 0 1 0-2.9h18.126a1.45 1.45 0 0 1 0 2.9z" transform="translate(-243.221 -65.542)"/>
                <path id="a0d63c63-f814-470b-a777-b0a1c00c2ac9" class="cls-5" d="M311.708 135.747h-18.127a1.45 1.45 0 1 1 0-2.9h18.126a1.45 1.45 0 0 1 0 2.9z" transform="translate(-243.221 -75.518)"/>
                <path id="ff5e0da0-ae1b-43c5-a91c-4cd72feaad08" class="cls-5" d="M254.614 124.863h-13.247a1.634 1.634 0 0 1-1.631-1.631V107.6a1.633 1.633 0 0 1 1.631-1.631h13.247a1.633 1.633 0 0 1 1.632 1.631v15.632a1.634 1.634 0 0 1-1.632 1.631z" transform="translate(-213.631 -60.277)"/>
                <path id="ad4ed544-ba1f-4890-b966-6cbda7ed2ca0" class="cls-3" d="M281.607 171.683h-40.966a1.45 1.45 0 1 1 0-2.9h40.966a1.45 1.45 0 0 1 0 2.9z" transform="translate(-213.282 -95.947)"/>
                <path id="bb4cdd45-0f85-4a7a-88d0-4f1a9d7bd917" class="cls-3" d="M281.6 189.233h-40.964a1.45 1.45 0 0 1-.008-2.9H281.6a1.45 1.45 0 0 1 0 2.9z" transform="translate(-213.276 -105.923)"/>
                <path id="a6089264-0f27-4995-b04f-a5be86198b98" class="cls-3" d="M281.607 206.783h-40.966a1.45 1.45 0 1 1 0-2.9h40.966a1.45 1.45 0 0 1 .008 2.9z" transform="translate(-213.281 -115.9)"/>
                <path id="a4f00200-1086-48db-adf1-de08956240d5" class="cls-3" d="M281.6 224.333h-40.964a1.45 1.45 0 0 1-.008-2.9H281.6a1.45 1.45 0 0 1 0 2.9z" transform="translate(-213.276 -125.973)"/>
                <path id="b49f179d-0424-4766-955e-eb78e4d9d5b3" class="cls-3" d="M281.6 241.883h-40.964a1.45 1.45 0 0 1-.008-2.9H281.6a1.45 1.45 0 0 1 0 2.9z" transform="translate(-213.276 -135.91)"/>
                <circle id="ba183dc1-a597-4106-bea7-eb7523e98551" cx="12.631" cy="12.631" r="12.631" transform="translate(68.739 24.494)" style="fill:#745be7"/>
                <path id="a4d5b786-8a25-41ee-bd38-08ceac89f4c5" class="cls-4" d="M374.815 46.6v-6.971h-3.588V46.6h-1.675l1.735 3 1.735 3 1.735-3 1.735-3z" transform="translate(-291.456 -9.053)"/>
            </g>
        </g>
    </g>
</svg>
