<svg xmlns="http://www.w3.org/2000/svg" width="142" height="142">
    <defs>
        <style>
            .cls-2{fill:#e6e6e6}.cls-5{fill:#a0616a}.cls-6{fill:#2f2e41}.cls-7{fill:#3f3d56}
        </style>
    </defs>
    <g id="Group_16028" data-name="Group 16028" transform="translate(-1020 -694)">
        <path id="Rectangle_5543" data-name="Rectangle 5543" transform="translate(1020 694)" style="fill:none" d="M0 0h142v142H0z"/>
        <g id="Group_15902" data-name="Group 15902" transform="translate(1041 717.229)">
            <path id="Path_17778" data-name="Path 17778" class="cls-2" d="M.64 55.854a.876.876 0 0 0-.607 1.079L14.668 109.2a.877.877 0 0 0 1.079.607L69.7 94.7a.877.877 0 0 0 .607-1.079L55.674 41.353a.877.877 0 0 0-1.079-.607z" transform="translate(0 -35.558)"/>
            <path id="Path_17779" data-name="Path 17779" d="m27.032 117.948 51.416-14.4-13.925-49.727-51.416 14.4z" transform="translate(-10.606 -46.165)" style="fill:#fff"/>
            <path id="Path_17780" data-name="Path 17780" class="cls-2" d="M47.1 136.181c-.343.1-.484.666-.315 1.27s.586 1.018.929.922l23.45-6.566c.343-.1.484-.666.315-1.27s-.586-1.018-.929-.922z" transform="translate(-37.8 -107.678)"/>
            <path id="Path_17781" data-name="Path 17781" class="cls-2" d="M57 171.533c-.343.1-.484.666-.315 1.27s.586 1.018.929.922l23.45-6.566c.343-.1.485-.666.315-1.27s-.586-1.018-.929-.922z" transform="translate(-45.811 -136.336)"/>
            <path id="Path_17782" data-name="Path 17782" class="cls-2" d="M66.782 206.477c-.343.1-.485.666-.315 1.27s.586 1.018.929.922l23.45-6.566c.343-.1.484-.666.315-1.27s-.586-1.018-.929-.922z" transform="translate(-53.728 -164.664)"/>
            <path id="Path_17783" data-name="Path 17783" class="cls-2" d="M76.681 241.829c-.343.1-.485.666-.315 1.27s.586 1.018.929.922l23.45-6.566c.343-.1.484-.666.315-1.27s-.586-1.018-.929-.922z" transform="translate(-61.739 -193.322)"/>
            <path id="Path_17784" data-name="Path 17784" class="cls-2" d="M230.5 107.228a1.138 1.138 0 1 0 .609 2.193l4.384-1.227a1.138 1.138 0 1 0-.614-2.192z" transform="translate(-186.229 -88.503)"/>
            <path id="Path_17785" data-name="Path 17785" class="cls-2" d="M240.206 141.894a1.138 1.138 0 0 0 .61 2.193l4.384-1.227a1.138 1.138 0 0 0-.614-2.192z" transform="translate(-194.1 -116.603)"/>
            <path id="Path_17786" data-name="Path 17786" class="cls-2" d="M249.919 176.561a1.138 1.138 0 1 0 .612 2.192l4.384-1.227a1.138 1.138 0 0 0-.614-2.192z" transform="translate(-201.977 -144.703)"/>
            <path id="Path_17787" data-name="Path 17787" class="cls-2" d="M259.638 211.23a1.138 1.138 0 0 0 .614 2.192l4.384-1.228a1.138 1.138 0 0 0-.614-2.192z" transform="translate(-209.86 -172.806)"/>
            <path id="Path_17788" data-name="Path 17788" d="M245.4 275.269a1.45 1.45 0 0 0 .78 2.794l25.367-6.993a1.45 1.45 0 0 0-.782-2.793z" transform="translate(-213.552 -220.056)" style="fill:#745be7"/>
            <path id="Rectangle_5205" data-name="Rectangle 5205" class="cls-2" transform="rotate(-15.63 210.691 -30.99)" d="M0 0h42.925v.382H0z"/>
            <path id="Path_17789" data-name="Path 17789" class="cls-5" d="m486.336 451.834-3.315.8-4.669-12.406 4.893-1.183z" transform="translate(-387.906 -358.603)"/>
            <path id="Path_17790" data-name="Path 17790" class="cls-6" d="m472.247 506.379-.022-.093a4.241 4.241 0 0 1 3.122-5.114l6.486-1.568 1.018 4.211z" transform="translate(-382.851 -407.607)"/>
            <path id="Path_17791" data-name="Path 17791" class="cls-5" d="M421.927 462.109h-3.411l-1.623-13.155h5.034z" transform="translate(-338.035 -366.619)"/>
            <path id="Path_17792" data-name="Path 17792" class="cls-6" d="M401.33 516.634h-10.91v-.1a4.237 4.237 0 0 1 4.237-4.237h6.673z" transform="translate(-316.61 -417.881)"/>
            <path id="Path_17793" data-name="Path 17793" class="cls-6" d="m402.834 312.826-3.312-39.467 13.709-2.527.054-.01 4.015 2.578-1.4 14.525 6.43 22.645-5.552 1.461-6.44-21-1.474-6.387-.755 8.3.561 20.466z" transform="translate(-324.115 -222.472)"/>
            <path id="Path_17794" data-name="Path 17794" class="cls-7" d="m397.142 129.638-.036-.046 4.737-35.668.006-.047.033-.033a5.888 5.888 0 0 1 3.437-1.71c.247 0 .482-.006.706-.012a4.05 4.05 0 0 1 3.565 1.165c1.25 1.249 5.326 5.812 5.326 12.061 0 6.048.551 24.845.557 25.034l.008.265-.223-.145c-.055-.035-5.538-3.527-10.137-.281a6.617 6.617 0 0 1-3.832 1.37 5.691 5.691 0 0 1-4.147-1.953z" transform="translate(-322.16 -77.354)"/>
            <circle id="Ellipse_467" data-name="Ellipse 467" class="cls-5" cx="6.833" cy="6.833" r="6.833" transform="rotate(-28.72 43.155 -141.362)"/>
            <path id="Path_17795" data-name="Path 17795" class="cls-5" d="M362.23 271.984a2.8 2.8 0 0 0 .162-4.287l3.88-9.153-5.081.935-2.906 8.548a2.813 2.813 0 0 0 3.944 3.956z" transform="translate(-290.044 -212.229)"/>
            <path id="Path_17796" data-name="Path 17796" class="cls-7" d="m361.879 139.2 1.25-2.638a.513.513 0 0 1-.185-.191c-1.168-2.023 5.884-18.825 6.354-19.939-.072-.606-.812-7.029-.271-9.194.637-2.549 1.946-3.736 4.375-3.972 2.679-.251 3.4 3.386 3.408 3.423v9.352l-3.071 10.759-7.011 14.3z" transform="translate(-293.494 -86.386)"/>
            <path id="Path_17797" data-name="Path 17797" class="cls-6" d="M405.248 11.231c-.819.107-1.437-.731-1.724-1.506s-.5-1.677-1.217-2.095c-.973-.572-2.218.116-3.33-.073a2.918 2.918 0 0 1-2.137-2.817 8.528 8.528 0 0 1 .939-3.67l.174 1.459A2.892 2.892 0 0 1 399.216 0l-.224 2.14a2.271 2.271 0 0 1 2.614-1.879l-.035 1.275a21.069 21.069 0 0 1 4.371-.214 7.068 7.068 0 0 1 4.024 1.551 7.04 7.04 0 0 1 2.051 5.972 18.8 18.8 0 0 1-2.038 6.2c-.236.5-.561 1.058-1.108 1.121a1.116 1.116 0 0 1-1.093-.824 2.985 2.985 0 0 1 .013-1.466 6.236 6.236 0 0 0 .182-2.219 1.809 1.809 0 0 0-1.4-1.552c-.741-.09-1.5.757-1.143 1.413z" transform="translate(-321.94 -2.612)"/>
        </g>
    </g>
</svg>
