<svg xmlns="http://www.w3.org/2000/svg" width="142" height="142">
    <defs>
        <style>
            .cls-2{fill:#ffb6b6}.cls-3{fill:#e4e4e4}.cls-4{fill:#3f3d56}.cls-5{fill:#2f2e41}.cls-8{fill:#fff}.cls-9{fill:#cacaca}.cls-10{fill:#745be7}.cls-11{fill:#59e6cf}
        </style>
    </defs>
    <g id="Group_16027" data-name="Group 16027" transform="translate(-740 -694)">
        <path id="Rectangle_5542" data-name="Rectangle 5542" transform="translate(740 694)" style="fill:none" d="M0 0h142v142H0z"/>
        <g id="Group_15903" data-name="Group 15903" transform="translate(42.659 -54.627)">
            <g id="Group_8917" data-name="Group 8917" transform="translate(712.341 770.627)">
                <g id="Group_8915" data-name="Group 8915" transform="translate(57.368)">
                    <path id="Path_17802" data-name="Path 17802" class="cls-2" d="M193.045 233.322a2.608 2.608 0 0 1 3.86 1.049l5.957-.23 1.023 3.586-8.416.206a2.623 2.623 0 0 1-2.423-4.611z" transform="translate(-173.607 -204.164)"/>
                    <path id="Path_17803" data-name="Path 17803" class="cls-3" d="m126.138 218.823 6.071.762.769.1 12.353 1.549s3.79-2.732 7.161-5.618V212.6a12.192 12.192 0 0 0-3.016-8.038c-4.562 2.213-7.748 7.4-7.748 7.4l-7.9.772-.79.077-4.908.478z" transform="translate(-101.914 -184.586)"/>
                    <path id="Path_17804" data-name="Path 17804" class="cls-4" d="M141.075 329.131h-11.421c0 .49-12.485.887-12.485.887a4.572 4.572 0 0 0-.748.709 4.4 4.4 0 0 0-1.028 2.837v.709a4.434 4.434 0 0 0 4.433 4.433h21.25a4.437 4.437 0 0 0 4.433-4.433v-.709a4.439 4.439 0 0 0-4.434-4.433z" transform="translate(-91.613 -270.828)"/>
                    <path id="Rectangle_5210" data-name="Rectangle 5210" class="cls-4" transform="translate(36.546 67.612)" d="M0 0h4.61v26.609H0z"/>
                    <path id="Path_17805" data-name="Path 17805" class="cls-4" d="M113 435.3c0 .5 6.986.193 15.6.193s15.6.306 15.6-.193-6.986-4.448-15.6-4.448S113 434.8 113 435.3z" transform="translate(-89.578 -341.242)"/>
                    <path id="Path_17806" data-name="Path 17806" class="cls-2" d="M229.2 405.773h-3.431l-1.632-13.234h5.063z" transform="translate(-208.871 -314.754)"/>
                    <path id="Path_17807" data-name="Path 17807" class="cls-5" d="M232.365 431.783h-6.757a4.307 4.307 0 0 0-4.306 4.306v.14h11.063z" transform="translate(-211.161 -341.885)"/>
                    <path id="Path_17808" data-name="Path 17808" class="cls-2" d="M262.052 405.773h-3.431l-1.632-13.234h5.064z" transform="translate(-251.864 -314.754)"/>
                    <path id="Path_17809" data-name="Path 17809" class="cls-5" d="M265.218 431.783h-6.757a4.307 4.307 0 0 0-4.306 4.306v.14h11.063z" transform="translate(-254.155 -341.885)"/>
                    <circle id="Ellipse_468" data-name="Ellipse 468" class="cls-2" cx="5.966" cy="5.966" transform="translate(33.013 3.187)" r="5.966"/>
                    <path id="Path_17810" data-name="Path 17810" class="cls-5" d="M147.5 145.911s-2.122-2.95-4.1 0-3.931-.629-3.477-1.753.335-1.26 3.627-2.72 9.623-4.4 11.475 2.891-1.938 7.425-1.938 7.425-.773-7.081-1.666-5.087l-.892 1.994-.917.327z" transform="translate(-109.198 -139.604)"/>
                    <path id="Path_17811" data-name="Path 17811" class="cls-5" d="M161.163 297.436s2 10.584-5.614 11.932-18.609 2.295-18.609 2.295L132 334.7l-6.633-.592s.882-27.727 3.051-29.9 15.88-8.665 15.88-8.665z" transform="translate(-110.586 -247.697)"/>
                    <path id="Path_17812" data-name="Path 17812" class="cls-5" d="m194.565 287.3-3.331 3.342s-24.051 3.874-24.979 9.429c-1.4 8.386-3.055 26.623-3.055 26.623l7.231-.542 2.835-20.731 11.57-2.632 13.164-7.17z" transform="translate(-158.862 -242.001)"/>
                    <path id="Path_17813" data-name="Path 17813" class="cls-3" d="M125.21 226.787s18.579 7.278 18.171 3a59.986 59.986 0 0 1-.383-7.121v-16.23a12.23 12.23 0 0 0-6.482-10.791l-6.272.1-1.935 2.565c-1.556 7.794-1.864 8.72-1.864 8.72l-1.3 3.55-.272 2.219.951 4.726z" transform="translate(-92.421 -178.43)"/>
                    <path id="Path_17814" data-name="Path 17814" d="m213.951 225.552.036-.011-.61-1.963c-.2-.627-.094-1.216.225-1.316l2.118-.658c.32-.1.737.329.932.956L220 233.327c.2.628.094 1.216-.225 1.316l-2.118.658c-.32.1-.737-.329-.932-.956l-2.3-7.407-.036.011z" transform="translate(-196.418 -196.373)" style="fill:#6c63ff"/>
                    <path id="Path_17815" data-name="Path 17815" class="cls-4" d="m214.951 226.552.036-.011-.61-1.963c-.2-.627-.094-1.216.225-1.316l2.118-.658c.32-.1.737.329.932.956L221 234.327c.2.628.094 1.216-.225 1.316l-2.118.658c-.32.1-.737-.329-.932-.956l-2.3-7.407-.036.011z" transform="translate(-197.727 -197.066)"/>
                    <ellipse id="Ellipse_469" data-name="Ellipse 469" cx=".729" cy=".371" rx=".729" ry=".371" transform="rotate(-107.267 20.464 8.085)" style="fill:#d0cde1"/>
                    <path id="Path_17816" data-name="Path 17816" class="cls-2" d="M197.415 248.322a2.608 2.608 0 0 1 3.86 1.049l5.957-.23 1.023 3.586-8.416.206a2.623 2.623 0 0 1-2.423-4.611z" transform="translate(-179.326 -214.549)"/>
                    <path id="Path_17817" data-name="Path 17817" class="cls-3" d="m126.138 231.646 6.84.858 12.353 1.549s4.9-3.531 8.51-6.806v-6.454a12.205 12.205 0 0 0-.812-4.38c-6.371.349-11.3 8.374-11.3 8.374l-7.9.772-5.7.556z" transform="translate(-103.263 -192.793)"/>
                </g>
                <g id="Group_8916" data-name="Group 8916" transform="translate(0 67.254)">
                    <path id="Path_17819" data-name="Path 17819" class="cls-8" d="m392.135 488.225.342 16.274 10.535 5.567 19.188-3.426.471-16.916-12.163-4.283z" transform="translate(-391.964 -485.268)"/>
                    <path id="Path_17820" data-name="Path 17820" class="cls-9" d="m402.338 509.59-10.674-5.64-.348-16.521 18.56-2.812.04.014 12.278 4.323-.478 17.176zM392 503.744l10.4 5.494 18.994-3.392.464-16.657-12.007-4.228-18.185 2.755z" transform="translate(-391.316 -484.617)"/>
                    <path id="Path_17821" data-name="Path 17821" class="cls-9" d="m402.543 502.561-.041-.016-10.663-4.24.124-.313 10.622 4.223 19.827-2.735.046.333z" transform="translate(-391.729 -495.192)"/>
                    <path id="Rectangle_5211" data-name="Rectangle 5211" class="cls-9" transform="rotate(-.697 597.026 -873.254)" d="M0 0h.336v17.603H0z"/>
                    <path id="Path_17822" data-name="Path 17822" class="cls-9" d="m421.087 498.387-2.913-1.175 18.5-2.949 2.913 1.175z" transform="translate(-412.551 -492.244)"/>
                    <path id="Rectangle_5212" data-name="Rectangle 5212" class="cls-9" transform="rotate(-66.706 6.119 3.913)" d="M0 0h.336v4.854H0z"/>
                    <path id="Rectangle_5213" data-name="Rectangle 5213" class="cls-10" transform="rotate(-66.706 11.346 5.156)" d="M0 0h.336v4.854H0z"/>
                    <path id="Path_17823" data-name="Path 17823" class="cls-10" d="m479.563 497.192.4 18.891 12.23 6.463 22.272-3.977.547-19.637-14.119-4.971z" transform="translate(-461.089 -492.005)"/>
                    <path id="Path_17824" data-name="Path 17824" class="cls-4" d="m491.407 521.994-12.391-6.548-.4-19.177L500.158 493l.046.016 14.253 5.019-.555 19.938zm-12-6.786 12.069 6.378 22.049-3.937.538-19.336-13.943-4.913-21.109 3.2z" transform="translate(-460.338 -491.248)"/>
                    <path id="Path_17825" data-name="Path 17825" class="cls-4" d="m491.645 513.834-.048-.019-12.379-4.922.144-.363 12.331 4.9 23.016-3.174.053.387z" transform="translate(-460.816 -503.524)"/>
                    <path id="Rectangle_5214" data-name="Rectangle 5214" class="cls-4" transform="rotate(-.697 846.56 -2515.023)" d="M0 0h.391v20.434H0z"/>
                    <path id="Path_17826" data-name="Path 17826" class="cls-4" d="m513.369 509-3.579-1.373 21.481-3.423 3.58 1.373z" transform="translate(-484.988 -500.102)"/>
                    <path id="Rectangle_5215" data-name="Rectangle 5215" class="cls-4" transform="rotate(-66.706 17.574 -8.462)" d="M0 0h.391v5.635H0z"/>
                    <path id="Rectangle_5216" data-name="Rectangle 5216" class="cls-8" transform="rotate(-66.706 23.642 -7.02)" d="M0 0h.391v5.635H0z"/>
                </g>
            </g>
            <g id="Group_8918" data-name="Group 8918" transform="translate(779.248 790.9)">
                <path id="Path_17827" data-name="Path 17827" class="cls-11" d="M51.658 84.187a17.17 17.17 0 0 0 4.318.733.267.267 0 0 0 .069-.481 19.918 19.918 0 0 0-4.318-.733.245.245 0 0 0-.069.481z" transform="translate(-51.48 -78.683)"/>
                <path id="Path_17828" data-name="Path 17828" class="cls-11" d="M57.788 74.524a7.925 7.925 0 0 0 .928 1.272A12.921 12.921 0 0 0 59.8 77.1c.25.231.693-.072.491-.378a10.5 10.5 0 0 0-1.031-1.214 9.323 9.323 0 0 0-1.18-1.214c-.166-.113-.395.036-.292.23z" transform="translate(-55.193 -73.09)"/>
                <path id="Path_17829" data-name="Path 17829" class="cls-11" d="M68.5 71.576a.181.181 0 0 0-.355-.046 8.648 8.648 0 0 0-.332 1.6c-.239 1.561-.223 1.391-.218 1.432 0 .226.276.4.573.218.229-.172.2-.562.275-1.558a8.448 8.448 0 0 0 .057-1.646z" transform="translate(-61.002 -71.399)"/>
            </g>
        </g>
    </g>
</svg>
