<svg xmlns="http://www.w3.org/2000/svg" width="184" height="150" viewBox="0 0 184 150">
    <defs>
        <linearGradient id="linear-gradient" x1=".899" y1="-.628" x2=".899" y2=".372" gradientUnits="objectBoundingBox">
            <stop offset="0" stop-color="gray" stop-opacity=".251"/>
            <stop offset=".54" stop-color="gray" stop-opacity=".122"/>
            <stop offset="1" stop-color="gray" stop-opacity=".102"/>
        </linearGradient>
        <style>
            .cls-13,.cls-4{isolation:isolate}.cls-3{fill:#5f5d7e}.cls-4{opacity:.1}.cls-5{fill:#e6e8ec}.cls-12{fill:#6c63ff}.cls-7{fill:#474157}.cls-11{fill:#fdc2cc}.cls-13{opacity:.3}.cls-16{fill:#ccc}
        </style>
    </defs>
    <g id="Group_16308" data-name="Group 16308" transform="translate(596.096 -2997.519)">
        <path id="Path_18402" data-name="Path 18402" d="M97.866 6.536C104.108.81 113.909-.353 122.828.1c28.018 1.434 53.309 15.358 75.185 31.108 7.919 5.7 15.717 11.846 20.858 19.7 10.464 15.986 7.361 38.129-7.191 51.3-4.95 4.48-10.951 7.915-17.114 10.961-10.951 5.414-22.776 9.758-35.209 11-8.868.881-17.846.165-26.66-1.067-24.632-3.437-48.8-11.047-69.064-24.049-8.887-5.706-17.264-12.8-20.927-22.03s-1.318-20.92 7.765-26.39c3.754-2.259 8.242-3.28 12.634-4.238 6.467-1.411 13.038-2.8 18.872-5.668C88 37.753 95.142 32.024 93.942 25.475c-1.29-7.04-2.304-13.226 3.924-18.939z" transform="translate(-637.147 2997.509)" style="isolation:isolate;fill:#c3c3c3"/>
        <circle id="Ellipse_488" data-name="Ellipse 488" cx="6.431" cy="6.431" r="6.431" transform="translate(-568.202 3015.765)" style="fill:#dbdada;isolation:isolate"/>
        <path id="Path_18403" data-name="Path 18403" class="cls-3" d="m121.682 487.31-.076 4.073L121 524.4l-5.173 12.115-17.829.2v-47.529l18.607-1.474z" transform="translate(-679.564 2595.71)"/>
        <path id="Path_18404" data-name="Path 18404" class="cls-4" d="m121.682 487.31-.076 4.073L121 524.4l-5.173 12.115-17.829.2v-47.529l18.607-1.474z" transform="translate(-679.564 2595.71)"/>
        <path id="Path_18405" data-name="Path 18405" class="cls-3" d="m191.183 487.31-.076 4.073-.6 33.014-5.173 12.115 1.362-45.051v-.029l-.58-3.72z" transform="translate(-749.243 2595.71)"/>
        <path id="Path_18406" data-name="Path 18406" class="cls-4" d="m116.607 487.712 5.075-.4-.076 4.073-4.42.049-19.186.212v-2.46z" transform="translate(-679.564 2594.549)"/>
        <g id="Group_11423" data-name="Group 11423" transform="translate(-580.22 3076.577)">
            <path id="Path_18407" data-name="Path 18407" class="cls-3" d="M918.086 485.868v47.256h-4.15l-16.606-12.113v-36.477l14.836-1.394.911.419.859.4z" transform="translate(-769.64 -478.138)"/>
            <path id="Rectangle_5356" data-name="Rectangle 5356" class="cls-4" transform="translate(144.296 5.42)" d="M0 0h4.15v49.565H0z"/>
            <path id="Path_18408" data-name="Path 18408" class="cls-4" d="M918.086 483.559v2.717l-4.15.047-16.606.184v-1.972l14.836-1.394.911.419.859.4v-.4z" transform="translate(-769.64 -478.138)"/>
            <path id="Path_18409" data-name="Path 18409" class="cls-3" d="M148.446 462.519v3.85L0 468.644v-4.9l13.968-3.879 121.551-1.225z" transform="translate(0 -458.64)"/>
            <path id="Path_18410" data-name="Path 18410" class="cls-4" d="M148.446 477.64v3.85L0 483.765v-4.9z" transform="translate(0 -473.761)"/>
        </g>
        <circle id="Ellipse_492" data-name="Ellipse 492" class="cls-5" cx=".984" cy=".984" r=".984" transform="translate(-546.455 3049.411)"/>
        <g id="Group_11422" data-name="Group 11422" transform="translate(-537.102 3024.561)">
            <ellipse id="Ellipse_491" data-name="Ellipse 491" cx="17.198" cy="1.715" rx="17.198" ry="1.715" transform="translate(49.034 119.528)" style="fill:#6c63ff;opacity:.1;isolation:isolate"/>
            <rect id="Rectangle_5357" data-name="Rectangle 5357" class="cls-7" width="71.438" height="55.467" rx="5"/>
            <path id="Rectangle_5358" data-name="Rectangle 5358" transform="translate(5.749 5.004)" style="fill:#fff" d="M0 0h60.046v45.247H0z"/>
            <circle id="Ellipse_493" data-name="Ellipse 493" class="cls-5" cx="1.623" cy="1.623" r="1.623" transform="translate(66.832 26.109)"/>
            <path id="Path_18411" data-name="Path 18411" d="m510.577 292.034-7.678-4.667a1.049 1.049 0 0 0-1.558.915v9.077a1.049 1.049 0 0 0 1.558.915l7.678-4.406a1.051 1.051 0 0 0 0-1.833zm5.773.786a10.82 10.82 0 1 0-10.82 10.82 10.82 10.82 0 0 0 10.82-10.82zm-19.546 0a8.726 8.726 0 1 1 8.726 8.726 8.724 8.724 0 0 1-8.726-8.721z" transform="translate(-468.331 -264.233)" style="fill:#745be7"/>
            <path id="Path_18412" data-name="Path 18412" d="M603.73 325.079a2.55 2.55 0 0 0-.231-.719c.155-.529.255-.853.255-.853a1.19 1.19 0 0 0-.025-.2 3.134 3.134 0 0 0-3.175-2.63c-1.225.022-3.548.1-6.125.394.147-1.031.323-2.264.506-3.534l.337.037a1.616 1.616 0 0 1 .241.012h.108a1.112 1.112 0 0 0 .747-.229.441.441 0 0 0-.137-.723 1.821 1.821 0 0 0 1.6-.67 1.429 1.429 0 0 0 0-1.662c-.431-.612-1.343-1.021-1.392-1.741a2.127 2.127 0 0 1 .461-1.137 4.751 4.751 0 0 0-.749-5.706 11.178 11.178 0 0 0-.906-.806 15.253 15.253 0 0 0-1.057-3.171c-.18-.059-.488-.447-.782-.78a3.757 3.757 0 0 0-.014-.843c-.216-1.429-1.633-2.45-2.413-3.712a6.408 6.408 0 0 1-.721-4.253 30.427 30.427 0 0 1 1.115-4.255 5.417 5.417 0 0 0 .218-3.2 5.815 5.815 0 0 0-1.317-1.984 15 15 0 0 0-4.679-3.675 9.3 9.3 0 0 0-4.142-.886h-.014l-.225.012-.159.01-.159.016-.169.016a6.955 6.955 0 0 0-.517.084 17.82 17.82 0 0 0-3.787-.425h-.165a1.938 1.938 0 0 0-1.082.255c-.453.316-.51.884-.647 1.378a3.824 3.824 0 0 1-1.47 2.042c-.488.351-1.062.612-1.527.98a1.556 1.556 0 0 0-.7 1.462 1.6 1.6 0 0 0 1.021 1c-.059.073-.12.145-.178.22.1.039.2.073.292.1.612.182 1.272.2 1.893.37a4.145 4.145 0 0 1 .5.169 7.171 7.171 0 0 0-.839 3.373 7.266 7.266 0 0 0 3.8 6.374v.2c.063 2.131-.1 4.724-1.188 5.163s-2.133.935-2.776 1.256l-.2.108a9.656 9.656 0 0 1-.5-.245s-.868-.1-.717.559c0 0-2.623-.408-4.063.712a37.4 37.4 0 0 0-4.265 4.071c-.463.61-4.046 1.946-4.046 1.946a4.594 4.594 0 0 0 .641-3.511 10.253 10.253 0 0 1-.282-3.266c.257-.935.925-4.406.925-4.406s.094-3.663-1.9-5.343-3.389-3.062-2.617-1.429a22.725 22.725 0 0 0 1.131 2.186s-4.779 1.135-3.083 2.907 2.158 1.774 2.158 1.774l-.67 5.19c-.105.815-1.021 7.021-1.021 7.021s-.051 2.952.463 3.409a2.322 2.322 0 0 0 2.466 1.837 26.524 26.524 0 0 0 5.19-.559c1.131-.457 5.034-2.9 5.447-2.748a.238.238 0 0 1 .08.053.581.581 0 0 1 .061.061c-.408.9-1.376 3.975-.964 5.484 0 0-.359 4.273 1.8 5.647 0 0 3.134 5.292 1.952 8.14a24.24 24.24 0 0 0-.255.649 18.535 18.535 0 0 0-8.713-3.616 21.962 21.962 0 0 1-1.272-.274c-1.188-.288-4.457-.551-6.012 4.616a22.727 22.727 0 0 1-1.38 3.5 11.541 11.541 0 0 0-1.307 4.777c-.035 2.47 1.241 4.918 5.872 5.816a17.62 17.62 0 0 0 .89 5.6c1.284 3.205 3.34 8.395 3.34 8.395s2.466 5.292 2.621 7.427a34.088 34.088 0 0 1 .145 4.491 2.006 2.006 0 0 1-.02.225 5.417 5.417 0 0 1-.69.627 5.532 5.532 0 0 0-1.541 1.78 5.423 5.423 0 0 0 .078.87 2.143 2.143 0 0 0-.866 1.552c0 2.76 7.833 5 17.5 5s17.494-2.246 17.494-5c0-2.519-6.533-4.6-15.022-4.945a15.96 15.96 0 0 0 3.993-2.042.956.956 0 0 0 .308-.421l-1.643-3.816s-.129.029-.318.084l-.114-.171c-.731-1.113-2.137-3.33-2.137-3.932 0-.223-.372-1.646-.911-3.6v-6.257a47.7 47.7 0 0 0 12.27-.294l.031-.016h.135v-.073c.929-.514 5.576-3.236 6.954-6.845.408-1.053-.1-2.562-1.111-4.175.706-1.754 2.45-6.284 2.276-8.091 0-.1-.012-.2-.012-.31a5.3 5.3 0 0 0 .02-.555 43.043 43.043 0 0 1 1.837-7.5s-.032-.082-.053-.203zm-34.706-11.792c.372.653.77 1.488.927 1.827s-.543-1-.917-1.827zm.388 57.184-.039.014v-.2a12.1 12.1 0 0 1 .039-1.6 1.869 1.869 0 0 0-.176-.829 19.6 19.6 0 0 1-1.251-4.926 24.712 24.712 0 0 1-.267-4.216 74.653 74.653 0 0 0 .092-9.322l3.16.71 3.675 7.492a27.873 27.873 0 0 1 3.1 6.545v2.891a7.065 7.065 0 0 1-1.1 2.4 33.83 33.83 0 0 0-1.4 2.042c-.135.216-.284.439-.433.647-.049 0-2.464.141-2.875.594a2.744 2.744 0 0 0-.768 1.164l-.1.016a24.368 24.368 0 0 0-1.631-3.42z" transform="translate(-514.233 -260.94)" style="fill:url(#linear-gradient)"/>
            <path id="Path_18413" data-name="Path 18413" class="cls-4" d="m668.492 716.1-.817 2.654-3.471 3.011-5.1 1.466s-2.4-1.313-1.582-1.568a2.014 2.014 0 0 0 .77-.67c-.286 1.041 1.986-.3 1.986-.3s5.869-4.185 6.482-4.645a4.618 4.618 0 0 1 1.307-.6c.252.4.425.652.425.652z" transform="translate(-597.767 -609.192)"/>
            <path id="Path_18414" data-name="Path 18414" class="cls-11" d="m646.87 626.941-.817 2.654-3.471 3.011-5.1 1.466s-2.4-1.313-1.582-1.568a2.014 2.014 0 0 0 .77-.67 10.2 10.2 0 0 0 .682-.984c.437-.7.911-1.38 1.394-2.042a7.349 7.349 0 0 0 1.288-3.391c.357-2.807-3.266-8.472-3.266-8.472l-6.588-13.525 9.187 1.123s4.951 17 4.951 17.813c0 .612 1.4 2.828 2.123 3.944.259.39.429.641.429.641z" transform="translate(-576.144 -520.033)"/>
            <ellipse id="Ellipse_494" data-name="Ellipse 494" class="cls-3" cx="17.378" cy="5.012" rx="17.378" ry="5.012" transform="translate(48.252 112.597)"/>
            <path id="Path_18415" data-name="Path 18415" class="cls-12" d="M660.618 719.708a.98.98 0 0 1-.306.423c-1.262 1.158-5.98 2.879-8.9 3.814a20.659 20.659 0 0 1-2.333.664 6.919 6.919 0 0 1-3.215-1.035c-1.021-.627-.1-1.517.31-1.976s2.858-.6 2.858-.6c-1.174 1.954 1.733.239 1.733.239s5.869-4.185 6.482-4.644a5.633 5.633 0 0 1 1.735-.715z" transform="translate(-588.26 -609.534)"/>
            <path id="Path_18416" data-name="Path 18416" class="cls-13" d="M660.618 719.708a.98.98 0 0 1-.306.423c-1.262 1.158-5.98 2.879-8.9 3.814a20.659 20.659 0 0 1-2.333.664 6.919 6.919 0 0 1-3.215-1.035c-1.021-.627-.1-1.517.31-1.976s2.858-.6 2.858-.6c-1.174 1.954 1.733.239 1.733.239s5.869-4.185 6.482-4.644a5.633 5.633 0 0 1 1.735-.715z" transform="translate(-588.26 -609.534)"/>
            <path id="Path_18417" data-name="Path 18417" class="cls-4" d="M683.755 736.72c-1.262 1.158-5.98 2.879-8.9 3.814 2.645-2.234 7.077-3.408 8.9-3.814z" transform="translate(-611.703 -626.119)"/>
            <ellipse id="Ellipse_495" data-name="Ellipse 495" class="cls-4" cx="3.477" cy="1.002" rx="3.477" ry="1.002" transform="translate(62.153 114.992)"/>
            <path id="Rectangle_5359" data-name="Rectangle 5359" class="cls-3" transform="translate(63.696 89.556)" d="M0 0h3.573v26.438H0z"/>
            <path id="Path_18418" data-name="Path 18418" class="cls-4" d="M681.073 634.943v3.062a25.12 25.12 0 0 1-3.573-1.88v-2.495h.745z" transform="translate(-613.804 -544.076)"/>
            <path id="Path_18419" data-name="Path 18419" class="cls-7" d="M653.77 555.346s11.8-3.036 14.732-5.308 14.464 8.419 12.941 12.453-7.068 6.956-7.068 6.956-15.334 2.495-17.945-2.709a29.468 29.468 0 0 1-2.66-11.392z" transform="translate(-594.919 -477.3)"/>
            <path id="Path_18420" data-name="Path 18420" class="cls-4" d="M653.77 555.346s11.8-3.036 14.732-5.308 14.464 8.419 12.941 12.453-7.068 6.956-7.068 6.956-15.334 2.495-17.945-2.709a29.468 29.468 0 0 1-2.66-11.392z" transform="translate(-594.919 -477.3)"/>
            <path id="Path_18421" data-name="Path 18421" class="cls-7" d="M648.77 549.346s11.8-3.036 14.732-5.308 14.464 8.419 12.941 12.453-7.068 6.956-7.068 6.956-15.334 2.495-17.945-2.709a29.467 29.467 0 0 1-2.66-11.392z" transform="translate(-590.939 -472.525)"/>
            <path id="Path_18422" data-name="Path 18422" class="cls-11" d="m568.7 360.008-1.276-.463a4.641 4.641 0 0 0 .639-3.522 10.415 10.415 0 0 1-.282-3.287c.255-.947.919-4.42.919-4.42s.094-3.675-1.893-5.359-3.364-3.062-2.6-1.429a22.771 22.771 0 0 0 1.123 2.195s-4.747 1.137-3.062 2.917 2.144 1.778 2.144 1.778-.561 4.389-.664 5.206-1.021 7.043-1.021 7.043-.051 2.96.459 3.42a2.309 2.309 0 0 0 2.45 1.837c.364-.006 4.699-4.793 3.064-5.916z" transform="translate(-521.811 -311.026)"/>
            <path id="Path_18423" data-name="Path 18423" class="cls-11" d="M671.768 356.756v2.858l-2.96.966-5.043 3.712-1.337.984-5.971-2.4-3.777-3.976s.184-.1.5-.265l.2-.108c.639-.321 1.646-.817 2.758-1.26s1.243-3.04 1.18-5.179v-.2c-.051-1.5-.2-2.728-.2-2.728s.623-.118 1.529-.253c2.513-.374 7.2-.878 6.79.661a3.544 3.544 0 0 0 0 1.59c.012.057.024.116.039.174a13.466 13.466 0 0 0 1.739 3.8l4.083 1.47.114.041z" transform="translate(-594.051 -317.164)"/>
            <path id="Path_18424" data-name="Path 18424" class="cls-11" d="M736.431 389.606v-.868a2.853 2.853 0 0 1 .97 0c.357.1 1.035 1.174 1.341 1.276s2.18 7.094 1.976 7.707-2.133 14.44-2.133 14.44l-3.889 4.287-.766-11.79 2.5-6.992z" transform="translate(-658.713 -349.147)"/>
            <path id="Path_18425" data-name="Path 18425" class="cls-11" d="M635.179 550.4s-3.554.766-3.1 1.888 2.44 1.174 2.44 1.174z" transform="translate(-577.622 -477.838)"/>
            <path id="Path_18426" data-name="Path 18426" class="cls-11" d="m598.86 407.457-2.705 5.829-3.215 2.348-.561-3.628a15.9 15.9 0 0 0-1.554-2.805.234.234 0 0 0-.08-.053c-.408-.153-4.287 2.3-5.41 2.756a26.054 26.054 0 0 1-5.155.561l1.786-6.38s3.573-1.327 4.032-1.939a37.148 37.148 0 0 1 4.236-4.083c1.429-1.123 4.036-.715 4.036-.715l.041.016.67.29 1.939 4.747z" transform="translate(-536.352 -357.566)"/>
            <path id="Path_18427" data-name="Path 18427" class="cls-11" d="M593.672 597.81a12.181 12.181 0 0 0-.039 1.6c.014.57.039 1.053.039 1.053l-1.174 2.45s-4.032 1.327-3.369.766a2.217 2.217 0 0 0 .408-1.366 34.645 34.645 0 0 0-.145-4.5c-.153-2.144-2.6-7.452-2.6-7.452s-2.042-5.206-3.318-8.421-.817-9.034-.817-9.034.2-4.389 1.123-5.716 4.491-1.786 4.491-1.786l1.676 5.559a50.593 50.593 0 0 0 1.888 5.971c.51.766.357 9.9.153 10.871a26 26 0 0 0 .267 4.23 19.864 19.864 0 0 0 1.241 4.94 1.887 1.887 0 0 1 .176.835z" transform="translate(-538.259 -489.775)"/>
            <path id="Path_18428" data-name="Path 18428" class="cls-4" d="m618.935 733.043-1.174 2.45s-4.032 1.327-3.369.766a2.217 2.217 0 0 0 .408-1.366c.145-.145.3-.3.459-.468a10.309 10.309 0 0 1 3.644-2.436c.007.571.032 1.054.032 1.054z" transform="translate(-563.521 -622.355)"/>
            <path id="Path_18429" data-name="Path 18429" class="cls-12" d="M613.917 737.414a.112.112 0 0 1 0 .029c-.2.97-3.573 2.3-3.573 2.3s-2.144.357-3.369.664a.844.844 0 0 1-.288.027c-.945-.071-.988-1.89-.988-2.17a5.8 5.8 0 0 1 1.531-1.786 10.93 10.93 0 0 0 1.135-1.088 10.535 10.535 0 0 1 3.72-2.484s1.996 3.501 1.832 4.508z" transform="translate(-556.662 -623.079)"/>
            <path id="Path_18430" data-name="Path 18430" class="cls-13" d="M613.917 737.4a.112.112 0 0 1 0 .029c-.2.97-3.573 2.3-3.573 2.3s-2.144.357-3.369.663a.844.844 0 0 1-.288.027c-.945-.071-.988-1.89-.988-2.17a5.8 5.8 0 0 1 1.531-1.786 10.81 10.81 0 0 0 1.151-1.1 10.326 10.326 0 0 1 3.646-2.45l.057-.022s1.997 3.5 1.833 4.509z" transform="translate(-556.662 -623.063)"/>
            <path id="Path_18431" data-name="Path 18431" class="cls-4" d="M617.769 754.877a.112.112 0 0 1 0 .029c-.2.97-3.573 2.3-3.573 2.3s-2.144.357-3.369.664a.845.845 0 0 1-.288.027 37.533 37.533 0 0 1 4.167-2.63 11.348 11.348 0 0 1 3.063-.39z" transform="translate(-560.514 -640.542)"/>
            <path id="Path_18432" data-name="Path 18432" class="cls-4" d="M682.82 351.324c-1.262 1.039-2.421.89-4.183.89-1.274 0-2.93.447-3.973-.127-.043-1.594-.2-2.936-.2-2.936s8.881-1.684 8.319.408a3.711 3.711 0 0 0 .037 1.765z" transform="translate(-611.384 -317.165)"/>
            <path id="Path_18433" data-name="Path 18433" class="cls-11" d="M671.534 305.242a7.3 7.3 0 0 1-7.3 7.3 5.086 5.086 0 0 1-.559-.02 7.3 7.3 0 1 1 7.86-7.278z" transform="translate(-597.44 -276.922)"/>
            <path id="Path_18434" data-name="Path 18434" class="cls-4" d="m638.416 404.751 1.94 3.062-2.705 5.829-3.215 2.348-.561-3.638a15.9 15.9 0 0 0-1.554-2.805c.135-.329.227-.48.227-.359a14.971 14.971 0 0 0 1.255 2.807c3.879-1.327 2.674-6.482 2.674-6.482s-.482-4.593-.67-5.8l.67.29z" transform="translate(-577.847 -357.912)"/>
            <path id="Path_18435" data-name="Path 18435" class="cls-4" d="M671.768 388.422v2.858l-2.96.966-5.043 3.712-1.337.984-5.971-2.4-3.777-3.981s.184-.1.5-.265l.2-.108a24.928 24.928 0 0 0 10.312 1.854c7.69-1.225 7.919-3.083 7.727-3.742z" transform="translate(-594.051 -348.831)"/>
            <path id="Path_18436" data-name="Path 18436" d="M620.825 434.543a57.239 57.239 0 0 1-5.921 2.5c-3.522 1.276-11.28-.408-12.249-.664s-8.421-3.215-11.279-4.338-3.573-.2-4.236-.306-1.123-1.378-1.225-1.735 1.837-3.471 2.909-5.053 4.287-1.276 4.747-1.378 3.675 0 3.675 0-.2-1.021.97-3.879-1.939-8.166-1.939-8.166c-2.144-1.378-1.786-5.665-1.786-5.665-.51-1.888 1.123-6.227 1.123-5.716a14.97 14.97 0 0 0 1.256 2.807c3.879-1.327 2.674-6.482 2.674-6.482s-.561-5.359-.71-6.023.71-.561.71-.561q.249.129.5.245a24.814 24.814 0 0 0 10.522 1.95c9.324-1.5 7.672-3.9 7.611-3.989l.453.161c3.369 2.45 2.348 10.565 2.348 10.565l-1.262 6.057-.937 4.512s3.318 20.109 3.624 21.13-1.578 4.028-1.578 4.028z" transform="translate(-540.913 -348.664)" style="fill:#707079"/>
            <path id="Path_18437" data-name="Path 18437" class="cls-4" d="M629.606 570.63c-.2.153-2.5 4.9-.817 6.227s.817-6.227.817-6.227z" transform="translate(-574.549 -493.938)"/>
            <path id="Path_18438" data-name="Path 18438" class="cls-4" d="M643.18 573.9c.051.153 4.8 7.707 7.4 8.319z" transform="translate(-586.49 -496.54)"/>
            <path id="Path_18439" data-name="Path 18439" class="cls-4" d="m696.229 281-.759.161a5.112 5.112 0 0 1 .641-.19z" transform="translate(-628.105 -263.413)"/>
            <path id="Path_18440" data-name="Path 18440" class="cls-4" d="m669.824 327.079-1.429 6.053a7.4 7.4 0 0 1-1.984-1.329 6.047 6.047 0 0 0-1.449-1.213 6.291 6.291 0 0 0-2.517-.347 12.107 12.107 0 0 1-3.148-.539 2.219 2.219 0 0 1-.817-.4 1.984 1.984 0 0 1-.408-1.725 26.456 26.456 0 0 0 .031-3.53c-.012-.22-.029-.441-.047-.661a2.773 2.773 0 0 0-1.356-2.552c-.519-.2-1.137-.188-1.633-.435a1.359 1.359 0 0 1-.2-.127 2.718 2.718 0 0 1-.774-2.413q.065-1.788.125-3.579a10.393 10.393 0 0 0-.039-1.766 3.927 3.927 0 0 0-.318-1.127c-.443-.947-1.366-1.737-1.531-2.738a1.084 1.084 0 0 1-.018-.141c-.086-.894.478-1.727.676-2.607a3.778 3.778 0 0 0-2.893-4.218c-.612-.159-1.27-.19-1.88-.372a3.043 3.043 0 0 1-.288-.1 8.57 8.57 0 0 1 6.888-3.266c4.559 0 8.256 3.266 8.256 7.3a7 7 0 0 1-3.05 5.665c.012.057.027.116.043.174a12.84 12.84 0 0 0 1.968 3.8l4.622 1.47.514.163c3.811 2.449 2.656 10.56 2.656 10.56z" transform="translate(-590.263 -276.926)"/>
            <path id="Path_18441" data-name="Path 18441" class="cls-4" d="M766.991 469.273a.7.7 0 0 1-.131-.018.273.273 0 0 1 .131.018z" transform="translate(-684.921 -413.257)"/>
            <path id="Path_18442" data-name="Path 18442" class="cls-7" d="M653.293 278.345a17.546 17.546 0 0 0-3.9-.455 2.156 2.156 0 0 0-1.225.257c-.451.316-.508.888-.643 1.382a3.834 3.834 0 0 1-1.46 2.042c-.484.353-1.053.612-1.517.984a1.583 1.583 0 0 0-.7 1.466 1.812 1.812 0 0 0 1.339 1.135c.612.174 1.264.2 1.88.372a3.777 3.777 0 0 1 2.891 4.216 8.559 8.559 0 0 0-.676 2.607c.1 1.068 1.086 1.89 1.55 2.881a6.224 6.224 0 0 1 .361 2.891l-.125 3.581c-.033.943.049 2.078.98 2.54.5.245 1.119.218 1.633.435a2.769 2.769 0 0 1 1.356 2.55 26.355 26.355 0 0 1 .016 4.191 1.966 1.966 0 0 0 .408 1.725 2.189 2.189 0 0 0 .817.4 12.107 12.107 0 0 0 3.148.539 6.358 6.358 0 0 1 2.517.347 6.093 6.093 0 0 1 1.45 1.213 8.012 8.012 0 0 0 4.732 2.072 1.41 1.41 0 0 0 1.07-.218c.263-.243.108-.768-.267-.737a1.815 1.815 0 0 0 1.719-.657 1.449 1.449 0 0 0 0-1.668c-.427-.612-1.333-1.021-1.382-1.748a2.156 2.156 0 0 1 .457-1.141 4.8 4.8 0 0 0-.743-5.716c-.957-.99-2.393-1.741-2.727-3.011a24.079 24.079 0 0 1-.014-2.605c-.2-1.429-1.619-2.45-2.4-3.724a6.474 6.474 0 0 1-.717-4.265 30.345 30.345 0 0 1 1.109-4.267 5.506 5.506 0 0 0 .216-3.211 5.884 5.884 0 0 0-1.309-1.991 14.739 14.739 0 0 0-4.647-3.675 8.5 8.5 0 0 0-6.067-.559" transform="translate(-587.008 -260.962)"/>
            <path id="Path_18443" data-name="Path 18443" class="cls-4" d="M653.293 278.345a17.546 17.546 0 0 0-3.9-.455 2.156 2.156 0 0 0-1.225.257c-.451.316-.508.888-.643 1.382a3.834 3.834 0 0 1-1.46 2.042c-.484.353-1.053.612-1.517.984a1.583 1.583 0 0 0-.7 1.466 1.812 1.812 0 0 0 1.339 1.135c.612.174 1.264.2 1.88.372a3.777 3.777 0 0 1 2.891 4.216 8.559 8.559 0 0 0-.676 2.607c.1 1.068 1.086 1.89 1.55 2.881a6.224 6.224 0 0 1 .361 2.891l-.125 3.581c-.033.943.049 2.078.98 2.54.5.245 1.119.218 1.633.435a2.769 2.769 0 0 1 1.356 2.55 26.355 26.355 0 0 1 .016 4.191 1.966 1.966 0 0 0 .408 1.725 2.189 2.189 0 0 0 .817.4 12.107 12.107 0 0 0 3.148.539 6.358 6.358 0 0 1 2.517.347 6.093 6.093 0 0 1 1.45 1.213 8.012 8.012 0 0 0 4.732 2.072 1.41 1.41 0 0 0 1.07-.218c.263-.243.108-.768-.267-.737a1.815 1.815 0 0 0 1.719-.657 1.449 1.449 0 0 0 0-1.668c-.427-.612-1.333-1.021-1.382-1.748a2.156 2.156 0 0 1 .457-1.141 4.8 4.8 0 0 0-.743-5.716c-.957-.99-2.393-1.741-2.727-3.011a24.079 24.079 0 0 1-.014-2.605c-.2-1.429-1.619-2.45-2.4-3.724a6.474 6.474 0 0 1-.717-4.265 30.345 30.345 0 0 1 1.109-4.267 5.506 5.506 0 0 0 .216-3.211 5.884 5.884 0 0 0-1.309-1.991 14.739 14.739 0 0 0-4.647-3.675 8.5 8.5 0 0 0-6.067-.559" transform="translate(-587.008 -260.962)"/>
            <path id="Path_18444" data-name="Path 18444" class="cls-4" d="M636.68 496.008a3.491 3.491 0 0 0 3.573-1.174c1.837-1.834-3.573 1.174-3.573 1.174z" transform="translate(-581.317 -433.143)"/>
            <g id="Group_11421" data-name="Group 11421" transform="translate(56.792 16.941)" style="opacity:.1">
                <path id="Path_18445" data-name="Path 18445" d="M692.348 279.412a7.251 7.251 0 0 1 1.021-.129 7.742 7.742 0 0 0-1.429.045z" transform="translate(-682.088 -279)"/>
                <path id="Path_18446" data-name="Path 18446" d="M664.177 315.686a6.1 6.1 0 0 0-1.452-1.213 6.353 6.353 0 0 0-2.517-.347 12.047 12.047 0 0 1-3.148-.539 2.188 2.188 0 0 1-.817-.4 1.989 1.989 0 0 1-.408-1.725 26.356 26.356 0 0 0-.016-4.191 2.771 2.771 0 0 0-1.358-2.55c-.517-.216-1.135-.19-1.633-.435-.931-.461-1.021-1.6-.982-2.54l.125-3.579a6.2 6.2 0 0 0-.361-2.893c-.463-.99-1.45-1.811-1.549-2.881a8.82 8.82 0 0 1 .678-2.607 3.776 3.776 0 0 0-2.893-4.216c-.612-.159-1.27-.192-1.88-.372a1.792 1.792 0 0 1-1.329-1.123 1.554 1.554 0 0 1 .7-1.468c.463-.374 1.033-.631 1.519-.984a3.819 3.819 0 0 0 1.458-2.042 2.291 2.291 0 0 1 .643-1.382 1.634 1.634 0 0 1 .837-.245c-.182 0-.363-.01-.543-.01a2.172 2.172 0 0 0-1.225.255c-.451.318-.508.888-.643 1.382a3.834 3.834 0 0 1-1.46 2.042c-.484.353-1.053.612-1.517.984a1.584 1.584 0 0 0-.7 1.468 1.8 1.8 0 0 0 1.331 1.123c.61.182 1.264.2 1.88.372a3.776 3.776 0 0 1 2.891 4.216 8.574 8.574 0 0 0-.676 2.607c.1 1.07 1.086 1.891 1.549 2.881a6.2 6.2 0 0 1 .361 2.893l-.125 3.579c-.033.943.049 2.078.98 2.54.5.245 1.119.218 1.633.435a2.77 2.77 0 0 1 1.356 2.55 26.356 26.356 0 0 1 .016 4.191 1.966 1.966 0 0 0 .408 1.725 2.188 2.188 0 0 0 .817.4 12.029 12.029 0 0 0 3.148.539 6.359 6.359 0 0 1 2.517.347 6.146 6.146 0 0 1 1.452 1.213 8 8 0 0 0 4.73 2.072 2.185 2.185 0 0 0 .684-.027 7.984 7.984 0 0 1-4.481-2.045z" transform="translate(-643.68 -277.95)"/>
            </g>
            <path id="Path_18447" data-name="Path 18447" class="cls-4" d="M583.4 432.63s-1.633 1.5-1.394 2.111 1.394-2.111 1.394-2.111z" transform="translate(-537.787 -384.111)"/>
            <path id="Path_18448" data-name="Path 18448" class="cls-7" d="M562.667 526.477c-1.178-.288-4.426-.553-5.972 4.63a22.933 22.933 0 0 1-1.37 3.505c-1.482 3.044-3.4 9.3 5.024 10.681l20.211 4.594s10.82 1.327 11.535.817a1.978 1.978 0 0 0 .612-1.633s-11.943 0-14.291-3.675a19.2 19.2 0 0 1-2.45-8.677s.294-7.723-12.045-9.967a24.902 24.902 0 0 1-1.254-.275z" transform="translate(-515.538 -458.696)"/>
            <path id="Path_18449" data-name="Path 18449" class="cls-4" d="M562.667 526.647c-1.178-.288-4.426-.553-5.972 4.632a22.923 22.923 0 0 1-1.37 3.505c-1.482 3.042-3.4 9.3 5.024 10.679l20.211 4.593s10.82 1.327 11.535.817a1.978 1.978 0 0 0 .612-1.633s-11.943 0-14.291-3.675a19.2 19.2 0 0 1-2.45-8.677s.294-7.723-12.045-9.967a28.688 28.688 0 0 1-1.254-.274z" transform="translate(-515.538 -458.831)"/>
            <path id="Path_18450" data-name="Path 18450" class="cls-7" d="M693.937 490.825a3.122 3.122 0 0 0-3.154-2.638c-2.907.053-11.855.441-16.012 3.156 0 0-3.164 2.042-4.083 2.042s-13.372 10.616 5.1 20.109c0 0 9.9 2.817 13.78-3.8 0 0 2.756-7.1 2.552-9.565s1.837-9.1 1.837-9.1 0-.072-.02-.204z" transform="translate(-604.44 -428.325)"/>
            <path id="Path_18451" data-name="Path 18451" class="cls-4" d="M693.937 500.374a3.061 3.061 0 0 0-3.154-2.436c-2.907.049-11.855.408-16.012 2.913 0 0-3.164 1.884-4.083 1.884s-13.372 9.8 5.1 18.564c0 0 9.9 2.6 13.78-3.505 0 0 2.756-6.559 2.552-8.83s1.837-8.395 1.837-8.395 0-.069-.02-.195z" transform="translate(-604.44 -436.085)"/>
            <path id="Rectangle_5360" data-name="Rectangle 5360" class="cls-3" transform="translate(76.354 85.167)" d="M0 0h3.266v6.956H0z"/>
        </g>
        <ellipse id="Ellipse_496" data-name="Ellipse 496" class="cls-4" cx="9.195" cy=".59" rx="9.195" ry=".59" transform="translate(-565.983 3079.016)"/>
        <path id="Path_18454" data-name="Path 18454" class="cls-16" d="m149.992 357.979-.555 1.643s-.312-.22-.706-.568c-.788-.688-1.909-1.874-1.55-2.789.386-.982 1.658.314 2.352 1.135.273.326.459.579.459.579z" transform="translate(-709.352 2699.844)"/>
        <path id="Path_18455" data-name="Path 18455" class="cls-16" d="M164.458 353.781a7.933 7.933 0 0 1-.547.643 8.645 8.645 0 0 1-.1-.864c-.047-.841.043-1.958.886-1.709s.267 1.256-.239 1.93z" transform="translate(-722.866 2703.08)"/>
        <path id="Path_18456" data-name="Path 18456" class="cls-16" d="M196.217 354.551c-.016.541-.069.972-.069.972a6.935 6.935 0 0 1-.7-.625c-.635-.659-1.337-1.676-.353-2.289 1.024-.634 1.15.867 1.122 1.942z" transform="translate(-747.376 2702.575)"/>
        <path id="Path_18457" data-name="Path 18457" class="cls-16" d="M208.474 358.839a3.621 3.621 0 0 1-1.474 1.113 4.112 4.112 0 0 1-.494.178l-.661-.929a6.746 6.746 0 0 1 .274-.9 3.511 3.511 0 0 1 .465-.876 1.184 1.184 0 0 1 1.89 1.414z" transform="translate(-756.311 2699.014)"/>
        <path id="Path_18458" data-name="Path 18458" class="cls-4" d="M155.836 363.2c.28.325.465.578.465.578l-.555 1.643s-.312-.22-.706-.568a3.216 3.216 0 0 1 .633-1.443 1.917 1.917 0 0 1 .163-.21z" transform="translate(-715.657 2694.062)"/>
        <path id="Path_18459" data-name="Path 18459" class="cls-4" d="M164.5 360.58a7.933 7.933 0 0 1-.547.643 8.645 8.645 0 0 1-.1-.864 1.114 1.114 0 0 1 .647.221z" transform="translate(-722.908 2696.301)"/>
        <path id="Path_18460" data-name="Path 18460" class="cls-16" d="m160.071 368.246-1.4.612s-.3-.147-.743-.421c-1.468-.9-4.418-3.177-2.44-5.855s3.628 2.127 4.277 4.475c.21.705.306 1.189.306 1.189z" transform="translate(-715.713 2695.215)"/>
        <path id="Path_18461" data-name="Path 18461" class="cls-4" d="M198.72 363.057a1.138 1.138 0 0 1 .77-.347c-.016.541-.069.972-.069.972a6.935 6.935 0 0 1-.701-.625z" transform="translate(-750.653 2694.441)"/>
        <path id="Path_18462" data-name="Path 18462" class="cls-4" d="M207 365.184a4.112 4.112 0 0 1-.494.178l-.661-.929a6.746 6.746 0 0 1 .274-.9 2.362 2.362 0 0 1 .881 1.651z" transform="translate(-756.317 2693.798)"/>
        <path id="Path_18463" data-name="Path 18463" class="cls-16" d="m183.555 371.72-.235.041c-4.681.712-1.543-1.813-1.543-1.813s.2-.194.5-.512a5.536 5.536 0 0 0 1.513-2.723c.147-1.517.316-2.94 2.107-2.521 1.762.408 2.103 6.64-2.342 7.528z" transform="translate(-736.333 2693.381)"/>
        <path id="Rectangle_5361" data-name="Rectangle 5361" class="cls-7" transform="translate(-561.795 3077.077)" d="M0 0h8.944v2.352H0z"/>
        <path id="Rectangle_5362" data-name="Rectangle 5362" class="cls-7" transform="translate(-563.206 3069.345)" d="M0 0h11.686v8.207H0z"/>
        <path id="Rectangle_5363" data-name="Rectangle 5363" class="cls-4" transform="translate(-561.881 3077.077)" d="M0 0h8.944v2.352H0z"/>
        <path id="Rectangle_5364" data-name="Rectangle 5364" class="cls-4" transform="translate(-563.243 3069.347)" d="M0 0h11.686v8.207H0z"/>
        <path id="Rectangle_5365" data-name="Rectangle 5365" class="cls-7" transform="translate(-561.207 3077.077)" d="M0 0h8.944v2.352H0z"/>
        <path id="Path_18464" data-name="Path 18464" class="cls-4" d="M171.9 387.63c.2.7.3 1.186.3 1.186l-1.4.612s-.3-.147-.743-.421a3.5 3.5 0 0 1 1.843-1.377z" transform="translate(-727.843 2674.711)"/>
        <path id="Path_18465" data-name="Path 18465" class="cls-4" d="m183.555 392.454-.235.041c-4.681.712-1.543-1.813-1.543-1.813s.2-.194.5-.512a3.083 3.083 0 0 1 1.278 2.284z" transform="translate(-736.346 2672.705)"/>
        <path id="Path_18466" data-name="Path 18466" class="cls-16" d="M157.26 395.807s2.621-9.391 6.3-6.492-1.5 7.35-1.5 7.35z" transform="translate(-717.638 2673.87)"/>
        <circle id="Ellipse_497" data-name="Ellipse 497" class="cls-4" cx=".294" cy=".294" r=".294" transform="translate(-559.374 3058.961)"/>
        <circle id="Ellipse_498" data-name="Ellipse 498" class="cls-4" cx=".294" cy=".294" r=".294" transform="translate(-559.399 3060.361)"/>
        <circle id="Ellipse_499" data-name="Ellipse 499" class="cls-4" cx=".294" cy=".294" r=".294" transform="translate(-550.865 3059.236)"/>
        <circle id="Ellipse_500" data-name="Ellipse 500" class="cls-4" cx=".294" cy=".294" r=".294" transform="translate(-557.732 3066.402)"/>
        <circle id="Ellipse_501" data-name="Ellipse 501" class="cls-4" cx=".294" cy=".294" r=".294" transform="translate(-551.478 3061.56)"/>
        <circle id="Ellipse_502" data-name="Ellipse 502" class="cls-4" cx=".294" cy=".294" r=".294" transform="translate(-554.518 3064.655)"/>
        <circle id="Ellipse_503" data-name="Ellipse 503" class="cls-4" cx=".294" cy=".294" r=".294" transform="translate(-558.369 3059.561)"/>
        <circle id="Ellipse_504" data-name="Ellipse 504" class="cls-4" cx=".294" cy=".294" r=".294" transform="translate(-551.674 3060.137)"/>
        <circle id="Ellipse_505" data-name="Ellipse 505" class="cls-4" cx=".294" cy=".294" r=".294" transform="translate(-552.679 3062.458)"/>
        <circle id="Ellipse_506" data-name="Ellipse 506" class="cls-4" cx=".294" cy=".294" r=".294" transform="translate(-555.771 3066.177)"/>
        <circle id="Ellipse_507" data-name="Ellipse 507" class="cls-4" cx=".294" cy=".294" r=".294" transform="translate(-556.408 3064.704)"/>
        <circle id="Ellipse_508" data-name="Ellipse 508" class="cls-4" cx=".294" cy=".294" r=".294" transform="translate(-557.928 3061.385)"/>
        <path id="Rectangle_5366" data-name="Rectangle 5366" class="cls-4" transform="translate(-561.207 3077.062)" d="M0 0h8.944v.859H0z"/>
        <path id="Rectangle_5367" data-name="Rectangle 5367" class="cls-7" transform="translate(-562.618 3069.345)" d="M0 0h11.686v8.207H0z"/>
        <circle id="Ellipse_509" data-name="Ellipse 509" class="cls-4" cx=".294" cy=".294" r=".294" transform="translate(-555.378 3067.525)"/>
        <circle id="Ellipse_510" data-name="Ellipse 510" class="cls-4" cx=".294" cy=".294" r=".294" transform="translate(-557.143 3067.899)"/>
    </g>
</svg>
